<svg xmlns="http://www.w3.org/2000/svg" height="20" width="20"><path d="M5 13.896q1.125-.771 2.385-1.136 1.261-.364 2.615-.364 1.354 0 2.635.375 1.282.375 2.365 1.125.688-.854 1.021-1.834.333-.979.333-2.062 0-2.625-1.864-4.49Q12.625 3.646 10 3.646q-2.646 0-4.5 1.864Q3.646 7.375 3.646 10q0 1.062.323 2.042.323.979 1.031 1.854Zm5-2.292q-1.292 0-2.198-.896-.906-.896-.906-2.187 0-1.292.906-2.188.906-.895 2.198-.895 1.292 0 2.198.895.906.896.906 2.188 0 1.291-.906 2.187-.906.896-2.198.896Zm0 6.792q-1.729 0-3.26-.656-1.532-.657-2.678-1.802-1.145-1.146-1.802-2.678-.656-1.531-.656-3.26 0-1.75.656-3.271.657-1.521 1.802-2.666Q5.208 2.917 6.74 2.26q1.531-.656 3.26-.656 1.75 0 3.271.656 1.521.657 2.667 1.803 1.145 1.145 1.802 2.666.656 1.521.656 3.271 0 1.729-.656 3.26-.657 1.532-1.802 2.678-1.146 1.145-2.667 1.802-1.521.656-3.271.656Z"/></svg>