<svg xmlns="http://www.w3.org/2000/svg" height="20" width="20"><path d="M9.979 17.396q-3.083 0-5.239-2.156Q2.583 13.083 2.583 10h2.042q0 2.208 1.573 3.781t3.781 1.573q2.209 0 3.781-1.573 1.573-1.573 1.573-3.781T13.76 6.219q-1.572-1.573-3.781-1.573-1.146 0-2.146.427T6.104 6.292h1.917V8H2.688V2.708h1.687v2.521q1.021-1.208 2.458-1.916 1.438-.709 3.146-.709 1.521 0 2.875.584 1.354.583 2.354 1.583t1.584 2.354q.583 1.354.583 2.875t-.583 2.875q-.584 1.354-1.584 2.354t-2.354 1.583q-1.354.584-2.875.584ZM12 12.938l-2.833-2.834V6h1.687v3.375l2.354 2.354Z"/></svg>