<svg xmlns="http://www.w3.org/2000/svg" height="20" width="20"><path d="M5 16.396q-1.417 0-2.406-.99-.99-.989-.99-2.406V7q0-1.417.99-2.406.989-.99 2.406-.99h10q1.417 0 2.406.99.99.989.99 2.406v6q0 1.417-.99 2.406-.989.99-2.406.99Zm.396-9.542h9.292q.437 0 .864.125t.802.313V7q0-.583-.385-.969-.386-.385-.969-.385H5q-.583 0-.969.385-.385.386-.385.969v.312q.416-.229.844-.343.427-.115.906-.115Zm-1.292 2.75 8.375 2.042q.229.062.469 0 .24-.063.406-.208l2.458-2.021q-.229-.25-.52-.386-.292-.135-.604-.135H5.396q-.396 0-.761.198-.364.198-.531.51Z"/></svg>