<svg xmlns="http://www.w3.org/2000/svg" height="20" width="20"><path d="M.812 14.688v-1.376q0-.895.865-1.447.865-.553 2.323-.553.167 0 .323.011.156.01.323.031-.271.438-.417.927-.146.49-.146 1.011v1.396Zm4.5 0v-1.396q0-1.271 1.261-2 1.26-.73 3.427-.73 2.188 0 3.438.73 1.25.729 1.25 2v1.396Zm10.605 0v-1.396q0-.542-.146-1.021-.146-.479-.438-.917.146-.021.292-.031.146-.011.375-.011 1.458 0 2.323.553.865.552.865 1.447v1.376ZM4 10.354q-.667 0-1.146-.469-.479-.468-.479-1.135 0-.688.479-1.156.479-.469 1.125-.469.688 0 1.167.469.479.468.479 1.156 0 .667-.469 1.135-.468.469-1.156.469Zm12 0q-.667 0-1.146-.469-.479-.468-.479-1.135 0-.688.479-1.156.479-.469 1.125-.469.688 0 1.167.469.479.468.479 1.156 0 .667-.469 1.135-.468.469-1.156.469Zm-6-.771q-1.021 0-1.729-.718-.709-.719-.709-1.74 0-1 .709-1.719.708-.718 1.729-.718 1 0 1.719.718.719.719.719 1.74 0 1-.719 1.719Q11 9.583 10 9.583Z"/></svg>