<svg xmlns="http://www.w3.org/2000/svg" height="20" width="20"><path d="M1.417 15.938v-2.042h8.354v2.042Zm0-3.917V9.979h4.729v2.042Zm0-3.917V6.062h4.729v2.042Zm15.854 7.542-3.229-3.229q-.48.333-1.063.51t-1.229.177q-1.771 0-3.021-1.26-1.25-1.261-1.25-3.032 0-1.77 1.25-3.01 1.25-1.24 3.042-1.24 1.771 0 3.01 1.24 1.24 1.24 1.24 3.031 0 .625-.156 1.209-.157.583-.49 1.062l3.208 3.229Zm-5.5-4.417q1 0 1.698-.698t.698-1.719q0-1-.698-1.708t-1.719-.708q-1 0-1.698.708t-.698 1.708q0 1.021.698 1.719.698.698 1.719.698Z"/></svg>