<svg xmlns="http://www.w3.org/2000/svg" height="20" width="20"><path d="M14.083 18.021q-1.666 0-2.833-1.177-1.167-1.177-1.167-2.844 0-1.646 1.177-2.812 1.178-1.167 2.844-1.167 1.646 0 2.813 1.167 1.166 1.166 1.166 2.833 0 1.667-1.166 2.833-1.167 1.167-2.834 1.167Zm1.146-2.104.771-.771-1.375-1.354v-1.813h-1.063v2.25ZM4.562 17.188q-.708 0-1.218-.511-.511-.51-.511-1.219V4.583q0-.729.511-1.229.51-.5 1.218-.5h3.376q.229-.729.76-1.135.531-.407 1.302-.407t1.312.407q.542.406.75 1.135h3.376q.708 0 1.218.5.511.5.511 1.229v4.896q-.396-.271-.823-.479-.427-.208-.906-.312V4.583h-1.5v2.5H6.062v-2.5h-1.5v10.875h4.23q.146.5.343.927.198.427.49.803ZM10 4.5q.312 0 .531-.219.219-.219.219-.531 0-.312-.219-.531Q10.312 3 10 3q-.312 0-.531.219-.219.219-.219.531 0 .312.219.531.219.219.531.219Z"/></svg>