<svg xmlns="http://www.w3.org/2000/svg" height="20" width="20"><path d="m12.708 13.562 1.188-1.166-3.063-3.063V5.021H9.167v5ZM10 18.167q-1.688 0-3.177-.636-1.49-.635-2.604-1.75-1.115-1.114-1.75-2.604-.636-1.489-.636-3.177 0-1.708.636-3.198.635-1.49 1.75-2.594 1.114-1.104 2.604-1.739Q8.312 1.833 10 1.833q1.708 0 3.198.646t2.583 1.74q1.094 1.093 1.74 2.583.646 1.49.646 3.198 0 1.688-.636 3.177-.635 1.49-1.739 2.604-1.104 1.115-2.594 1.75-1.49.636-3.198.636ZM10 10Zm0 6.438q2.688 0 4.562-1.886 1.876-1.885 1.876-4.552 0-2.688-1.876-4.562Q12.688 3.562 10 3.562q-2.667 0-4.552 1.876Q3.562 7.312 3.562 10q0 2.667 1.886 4.552Q7.333 16.438 10 16.438Z"/></svg>