<svg xmlns="http://www.w3.org/2000/svg" height="20" width="20"><path d="M5.5 18.167q-.625 0-1.062-.438Q4 17.292 4 16.667t.438-1.063q.437-.437 1.062-.437t1.062.448Q7 16.062 7 16.688q0 .604-.438 1.041-.437.438-1.062.438Zm9 0q-.625 0-1.062-.438Q13 17.292 13 16.667t.438-1.063q.437-.437 1.062-.437t1.062.448q.438.447.438 1.073 0 .604-.438 1.041-.437.438-1.062.438Zm-8.938-12.5 1.459 3.458h6.229l1.396-3.458Zm-.833-1.834h11.438q.5 0 .739.396.24.396.032.854l-2.063 4.896q-.187.459-.594.74-.406.281-.906.281H6.812l-.77 1.333h10.125v1.834H5.75q-1.021 0-1.5-.844-.479-.844.021-1.677l1.041-1.771-2.624-6.208H.833V1.833h3.042Zm2.292 5.292h6.229Z"/></svg>