<svg xmlns="http://www.w3.org/2000/svg" height="20" width="20"><path d="M10 13.5q1.458 0 2.479-1.021Q13.5 11.458 13.5 10q0-1.458-1.021-2.479Q11.458 6.5 10 6.5q-1.458 0-2.479 1.021Q6.5 8.542 6.5 10q0 1.458 1.021 2.479Q8.542 13.5 10 13.5Zm0-1.75q-.729 0-1.24-.51-.51-.511-.51-1.24t.51-1.24q.511-.51 1.24-.51t1.24.51q.51.511.51 1.24t-.51 1.24q-.511.51-1.24.51Zm0 4.625q-3.104 0-5.635-1.76Q1.833 12.854.625 10q1.208-2.854 3.74-4.615Q6.896 3.625 10 3.625q3.104 0 5.635 1.76 2.532 1.761 3.74 4.615-1.208 2.854-3.74 4.615-2.531 1.76-5.635 1.76ZM10 10Zm0 4.5q2.312 0 4.281-1.219Q16.25 12.062 17.312 10q-1.062-2.062-3.031-3.281Q12.312 5.5 10 5.5q-2.312 0-4.281 1.219Q3.75 7.938 2.688 10q1.062 2.062 3.031 3.281Q7.688 14.5 10 14.5Z"/></svg>